<?xml version="1.0" standalone="no"?>
<!DOCTYPE svg PUBLIC "-//W3C//DTD SVG 20010904//EN"
 "http://www.w3.org/TR/2001/REC-SVG-20010904/DTD/svg10.dtd">
<svg version="1.0" xmlns="http://www.w3.org/2000/svg"
 width="54.000000pt" height="73.000000pt" viewBox="0 0 54.000000 73.000000"
 preserveAspectRatio="xMidYMid meet">

<g transform="translate(0.000000,73.000000) scale(0.100000,-0.100000)"
fill="#000000" stroke="none">
<path d="M175 670 c-82 -41 -104 -107 -105 -315 0 -111 3 -145 16 -163 15 -22
64 -31 64 -12 0 6 -8 10 -19 10 -39 0 -43 21 -39 197 3 157 5 171 27 207 31
49 97 81 150 71 20 -3 53 -20 73 -36 45 -35 54 -37 32 -4 -19 29 -90 65 -130
65 -16 0 -47 -9 -69 -20z"/>
<path d="M490 636 c0 -11 -7 -28 -16 -38 -16 -17 -18 -17 -30 0 -7 9 -14 12
-14 5 0 -6 -20 -35 -45 -64 -25 -29 -45 -63 -45 -75 0 -33 -25 -49 -56 -35
-30 13 -44 14 -44 2 0 -5 14 -14 30 -21 29 -12 30 -14 14 -31 -10 -11 -14 -22
-10 -27 4 -4 21 10 38 31 19 23 38 37 53 37 13 0 26 6 28 13 3 6 6 -40 6 -104
1 -119 -5 -139 -41 -139 -10 0 -18 -4 -18 -10 0 -19 49 -10 64 12 12 17 16 50
16 147 0 102 3 128 17 143 9 10 13 21 9 26 -5 4 -23 -10 -41 -31 -30 -35 -55
-42 -55 -17 0 5 20 32 45 60 l44 50 17 -25 c20 -30 39 -34 24 -4 -9 16 -8 24
5 39 9 10 23 16 31 13 19 -7 17 7 -6 37 -17 22 -20 23 -20 6z"/>
<path d="M136 472 c-22 -32 -26 -49 -26 -104 0 -77 13 -121 50 -168 34 -44 26
-68 -35 -98 -41 -20 -84 -66 -73 -78 3 -3 19 8 35 23 17 15 45 37 64 48 19 11
38 30 43 41 7 16 18 21 51 21 35 0 44 -5 57 -28 9 -15 34 -37 57 -48 22 -12
47 -31 55 -43 9 -12 19 -19 22 -15 13 13 -28 58 -71 79 -47 23 -71 58 -52 77
16 16 2 24 -21 12 -87 -46 -172 50 -172 193 0 44 10 51 30 21 l17 -26 27 36
27 35 -23 30 c-13 16 -26 29 -29 29 -4 1 -18 -16 -33 -37z m48 -35 c-13 -34
-40 -11 -29 24 6 18 9 19 21 7 8 -8 12 -22 8 -31z"/>
<path d="M371 368 c0 -21 -5 -38 -11 -38 -5 0 -10 5 -10 10 0 17 -14 10 -38
-20 l-22 -28 22 -36 c13 -19 25 -35 28 -35 3 0 14 14 25 32 17 27 20 42 14 92
-4 43 -6 49 -8 23z m-16 -83 c0 -10 -5 -20 -11 -22 -13 -4 -27 24 -18 38 9 15
29 4 29 -16z"/>
<path d="M211 266 c-9 -10 -8 -16 3 -25 10 -9 16 -8 25 3 9 10 8 16 -3 25 -10
9 -16 8 -25 -3z"/>
</g>
</svg>
